<?xml version="1.0" encoding="UTF-8"?>
<svg xmlns="http://www.w3.org/2000/svg" xmlns:xlink="http://www.w3.org/1999/xlink" width="765.35pt" height="170.08pt" viewBox="0 0 765.35 170.08" version="1.1">
<defs>
<clipPath id="clip1">
  <path d="M 751 148 L 765.351563 148 L 765.351563 170.078125 L 751 170.078125 Z M 751 148 "/>
</clipPath>
<clipPath id="clip2">
  <path d="M 702 148 L 724 148 L 724 170.078125 L 702 170.078125 Z M 702 148 "/>
</clipPath>
<clipPath id="clip3">
  <path d="M 677 142 L 690 142 L 690 170.078125 L 677 170.078125 Z M 677 142 "/>
</clipPath>
<clipPath id="clip4">
  <path d="M 656 148 L 674 148 L 674 170.078125 L 656 170.078125 Z M 656 148 "/>
</clipPath>
<clipPath id="clip5">
  <path d="M 637 148 L 654 148 L 654 170.078125 L 637 170.078125 Z M 637 148 "/>
</clipPath>
<clipPath id="clip6">
  <path d="M 580 148 L 599 148 L 599 170.078125 L 580 170.078125 Z M 580 148 "/>
</clipPath>
<clipPath id="clip7">
  <path d="M 482 148 L 504 148 L 504 170.078125 L 482 170.078125 Z M 482 148 "/>
</clipPath>
<clipPath id="clip8">
  <path d="M 463 148 L 480 148 L 480 170.078125 L 463 170.078125 Z M 463 148 "/>
</clipPath>
<clipPath id="clip9">
  <path d="M 682 40 L 765.351563 40 L 765.351563 133 L 682 133 Z M 682 40 "/>
</clipPath>
<clipPath id="clip10">
  <path d="M 379 42 L 474 42 L 474 170.078125 L 379 170.078125 Z M 379 42 "/>
</clipPath>
<clipPath id="clip11">
  <path d="M 35 0 L 171 0 L 171 170.078125 L 35 170.078125 Z M 35 0 "/>
</clipPath>
</defs>
<g id="surface1">
<g clip-path="url(#clip1)" clip-rule="nonzero">
<path style=" stroke:none;fill-rule:nonzero;fill:rgb(0%,31.799316%,49.398804%);fill-opacity:1;" d="M 751.421875 168.828125 L 751.421875 165.222656 C 753.253906 166.574219 755.273438 167.25 757.476563 167.25 C 760.429688 167.25 761.90625 166.269531 761.90625 164.300781 C 761.90625 163.734375 761.78125 163.265625 761.527344 162.871094 C 761.273438 162.484375 760.933594 162.140625 760.5 161.839844 C 760.070313 161.539063 759.5625 161.269531 758.984375 161.027344 C 758.402344 160.789063 757.777344 160.539063 757.105469 160.28125 C 756.175781 159.910156 755.355469 159.539063 754.652344 159.160156 C 753.949219 158.785156 753.359375 158.363281 752.890625 157.894531 C 752.414063 157.417969 752.0625 156.886719 751.820313 156.28125 C 751.582031 155.679688 751.460938 154.980469 751.460938 154.171875 C 751.460938 153.1875 751.6875 152.316406 752.140625 151.558594 C 752.59375 150.800781 753.191406 150.160156 753.945313 149.648438 C 754.699219 149.140625 755.554688 148.75 756.519531 148.492188 C 757.484375 148.234375 758.480469 148.105469 759.507813 148.105469 C 761.324219 148.105469 762.953125 148.417969 764.390625 149.046875 L 764.390625 152.449219 C 762.84375 151.4375 761.066406 150.933594 759.054688 150.933594 C 758.425781 150.933594 757.859375 151.003906 757.351563 151.144531 C 756.84375 151.289063 756.410156 151.492188 756.050781 151.75 C 755.6875 152.011719 755.40625 152.320313 755.207031 152.6875 C 755.007813 153.050781 754.910156 153.445313 754.910156 153.886719 C 754.910156 154.429688 755.007813 154.890625 755.207031 155.257813 C 755.40625 155.625 755.695313 155.953125 756.078125 156.242188 C 756.464844 156.527344 756.925781 156.785156 757.476563 157.019531 C 758.023438 157.257813 758.644531 157.503906 759.34375 157.777344 C 760.269531 158.136719 761.105469 158.5 761.847656 158.875 C 762.585938 159.25 763.214844 159.675781 763.730469 160.144531 C 764.253906 160.617188 764.652344 161.160156 764.933594 161.777344 C 765.214844 162.394531 765.355469 163.121094 765.355469 163.972656 C 765.355469 165.007813 765.125 165.910156 764.667969 166.675781 C 764.210938 167.441406 763.597656 168.078125 762.832031 168.582031 C 762.066406 169.085938 761.183594 169.464844 760.183594 169.710938 C 759.183594 169.957031 758.136719 170.078125 757.042969 170.078125 C 754.882813 170.078125 753.007813 169.660156 751.421875 168.828125 "/>
</g>
<path style=" stroke:none;fill-rule:nonzero;fill:rgb(0%,31.799316%,49.398804%);fill-opacity:1;" d="M 746.351563 169.585938 L 742.988281 169.585938 L 742.988281 157.613281 C 742.988281 153.15625 741.359375 150.933594 738.105469 150.933594 C 736.421875 150.933594 735.027344 151.5625 733.929688 152.828125 C 732.824219 154.09375 732.277344 155.6875 732.277344 157.613281 L 732.277344 169.585938 L 728.910156 169.585938 L 728.910156 148.597656 L 732.277344 148.597656 L 732.277344 152.078125 L 732.359375 152.078125 C 733.941406 149.429688 736.242188 148.105469 739.253906 148.105469 C 741.550781 148.105469 743.308594 148.847656 744.527344 150.328125 C 745.742188 151.808594 746.351563 153.953125 746.351563 156.753906 L 746.351563 169.585938 "/>
<g clip-path="url(#clip2)" clip-rule="nonzero">
<path style=" stroke:none;fill-rule:nonzero;fill:rgb(0%,31.799316%,49.398804%);fill-opacity:1;" d="M 713.316406 150.933594 C 711.15625 150.933594 709.445313 151.664063 708.1875 153.136719 C 706.929688 154.605469 706.296875 156.632813 706.296875 159.214844 C 706.296875 161.703125 706.933594 163.660156 708.207031 165.097656 C 709.476563 166.53125 711.183594 167.25 713.316406 167.25 C 715.492188 167.25 717.164063 166.542969 718.332031 165.140625 C 719.503906 163.730469 720.089844 161.726563 720.089844 159.132813 C 720.089844 156.511719 719.503906 154.488281 718.332031 153.0625 C 717.164063 151.644531 715.492188 150.933594 713.316406 150.933594 Z M 713.070313 170.078125 C 709.964844 170.078125 707.484375 169.101563 705.632813 167.136719 C 703.777344 165.175781 702.851563 162.574219 702.851563 159.335938 C 702.851563 155.8125 703.816406 153.058594 705.742188 151.074219 C 707.675781 149.097656 710.277344 148.105469 713.5625 148.105469 C 716.695313 148.105469 719.140625 149.066406 720.898438 150.992188 C 722.65625 152.917969 723.535156 155.59375 723.535156 159.011719 C 723.535156 162.359375 722.585938 165.039063 720.691406 167.054688 C 718.800781 169.070313 716.257813 170.078125 713.070313 170.078125 "/>
</g>
<path style=" stroke:none;fill-rule:nonzero;fill:rgb(0%,31.799316%,49.398804%);fill-opacity:1;" d="M 697.476563 169.585938 L 694.109375 169.585938 L 694.109375 148.597656 L 697.476563 148.597656 Z M 695.832031 143.265625 C 695.230469 143.265625 694.71875 143.0625 694.292969 142.648438 C 693.867188 142.238281 693.65625 141.722656 693.65625 141.09375 C 693.65625 140.464844 693.867188 139.9375 694.292969 139.523438 C 694.71875 139.105469 695.230469 138.898438 695.832031 138.898438 C 696.449219 138.898438 696.972656 139.105469 697.402344 139.523438 C 697.835938 139.9375 698.050781 140.464844 698.050781 141.09375 C 698.050781 141.695313 697.835938 142.207031 697.402344 142.628906 C 696.972656 143.054688 696.449219 143.265625 695.832031 143.265625 "/>
<g clip-path="url(#clip3)" clip-rule="nonzero">
<path style=" stroke:none;fill-rule:nonzero;fill:rgb(0%,31.799316%,49.398804%);fill-opacity:1;" d="M 689.613281 169.382813 C 688.820313 169.820313 687.773438 170.039063 686.476563 170.039063 C 682.796875 170.039063 680.957031 167.988281 680.957031 163.890625 L 680.957031 151.464844 L 677.34375 151.464844 L 677.34375 148.597656 L 680.957031 148.597656 L 680.957031 143.472656 L 684.320313 142.386719 L 684.320313 148.597656 L 689.613281 148.597656 L 689.613281 151.464844 L 684.320313 151.464844 L 684.320313 163.292969 C 684.320313 164.699219 684.5625 165.703125 685.039063 166.308594 C 685.519531 166.910156 686.3125 167.207031 687.417969 167.207031 C 688.269531 167.207031 689 166.976563 689.613281 166.511719 L 689.613281 169.382813 "/>
</g>
<g clip-path="url(#clip4)" clip-rule="nonzero">
<path style=" stroke:none;fill-rule:nonzero;fill:rgb(0%,31.799316%,49.398804%);fill-opacity:1;" d="M 670.160156 158.96875 L 665.09375 159.664063 C 663.535156 159.882813 662.359375 160.269531 661.5625 160.820313 C 660.769531 161.375 660.375 162.359375 660.375 163.765625 C 660.375 164.789063 660.738281 165.625 661.472656 166.277344 C 662.203125 166.925781 663.179688 167.25 664.394531 167.25 C 666.0625 167.25 667.441406 166.664063 668.53125 165.496094 C 669.617188 164.328125 670.160156 162.851563 670.160156 161.058594 Z M 673.527344 169.585938 L 670.160156 169.585938 L 670.160156 166.308594 L 670.078125 166.308594 C 668.617188 168.820313 666.464844 170.078125 663.617188 170.078125 C 661.523438 170.078125 659.886719 169.523438 658.703125 168.417969 C 657.519531 167.3125 656.925781 165.84375 656.925781 164.011719 C 656.925781 160.085938 659.238281 157.808594 663.863281 157.164063 L 670.160156 156.28125 C 670.160156 152.714844 668.71875 150.933594 665.832031 150.933594 C 663.304688 150.933594 661.015625 151.792969 658.980469 153.515625 L 658.980469 150.070313 C 661.046875 148.761719 663.425781 148.105469 666.121094 148.105469 C 671.058594 148.105469 673.527344 150.714844 673.527344 155.933594 L 673.527344 169.585938 "/>
</g>
<g clip-path="url(#clip5)" clip-rule="nonzero">
<path style=" stroke:none;fill-rule:nonzero;fill:rgb(0%,31.799316%,49.398804%);fill-opacity:1;" d="M 653.398438 168.621094 C 651.78125 169.597656 649.867188 170.078125 647.652344 170.078125 C 644.65625 170.078125 642.238281 169.105469 640.398438 167.15625 C 638.558594 165.210938 637.640625 162.6875 637.640625 159.582031 C 637.640625 156.125 638.628906 153.347656 640.613281 151.25 C 642.597656 149.152344 645.246094 148.105469 648.554688 148.105469 C 650.402344 148.105469 652.027344 148.441406 653.4375 149.128906 L 653.4375 152.570313 C 651.878906 151.480469 650.210938 150.933594 648.433594 150.933594 C 646.28125 150.933594 644.523438 151.699219 643.148438 153.238281 C 641.773438 154.773438 641.085938 156.792969 641.085938 159.296875 C 641.085938 161.757813 641.730469 163.695313 643.023438 165.117188 C 644.316406 166.539063 646.050781 167.25 648.226563 167.25 C 650.058594 167.25 651.78125 166.644531 653.398438 165.425781 L 653.398438 168.621094 "/>
</g>
<path style=" stroke:none;fill-rule:nonzero;fill:rgb(0%,31.799316%,49.398804%);fill-opacity:1;" d="M 632.261719 169.585938 L 628.894531 169.585938 L 628.894531 148.597656 L 632.261719 148.597656 Z M 630.621094 143.265625 C 630.019531 143.265625 629.507813 143.0625 629.082031 142.648438 C 628.65625 142.238281 628.445313 141.722656 628.445313 141.09375 C 628.445313 140.464844 628.65625 139.9375 629.082031 139.523438 C 629.507813 139.105469 630.019531 138.898438 630.621094 138.898438 C 631.234375 138.898438 631.761719 139.105469 632.191406 139.523438 C 632.621094 139.9375 632.835938 140.464844 632.835938 141.09375 C 632.835938 141.695313 632.621094 142.207031 632.191406 142.628906 C 631.761719 143.054688 631.234375 143.265625 630.621094 143.265625 "/>
<path style=" stroke:none;fill-rule:nonzero;fill:rgb(0%,31.799316%,49.398804%);fill-opacity:1;" d="M 622.554688 169.585938 L 619.191406 169.585938 L 619.191406 157.613281 C 619.191406 153.15625 617.5625 150.933594 614.308594 150.933594 C 612.625 150.933594 611.234375 151.5625 610.132813 152.828125 C 609.027344 154.09375 608.480469 155.6875 608.480469 157.613281 L 608.480469 169.585938 L 605.113281 169.585938 L 605.113281 148.597656 L 608.480469 148.597656 L 608.480469 152.078125 L 608.5625 152.078125 C 610.148438 149.429688 612.445313 148.105469 615.457031 148.105469 C 617.753906 148.105469 619.511719 148.847656 620.730469 150.328125 C 621.945313 151.808594 622.554688 153.953125 622.554688 156.753906 L 622.554688 169.585938 "/>
<g clip-path="url(#clip6)" clip-rule="nonzero">
<path style=" stroke:none;fill-rule:nonzero;fill:rgb(0%,31.799316%,49.398804%);fill-opacity:1;" d="M 598.320313 169.585938 L 594.957031 169.585938 L 594.957031 166.269531 L 594.875 166.269531 C 593.480469 168.808594 591.316406 170.078125 588.390625 170.078125 C 583.382813 170.078125 580.878906 167.101563 580.878906 161.140625 L 580.878906 148.597656 L 584.226563 148.597656 L 584.226563 160.605469 C 584.226563 165.035156 585.921875 167.25 589.3125 167.25 C 590.953125 167.25 592.304688 166.644531 593.367188 165.4375 C 594.425781 164.226563 594.957031 162.644531 594.957031 160.6875 L 594.957031 148.597656 L 598.320313 148.597656 L 598.320313 169.585938 "/>
</g>
<path style=" stroke:none;fill-rule:nonzero;fill:rgb(0%,31.799316%,49.398804%);fill-opacity:1;" d="M 574.96875 169.585938 L 571.605469 169.585938 L 571.605469 157.53125 C 571.605469 155.207031 571.246094 153.527344 570.527344 152.488281 C 569.808594 151.453125 568.601563 150.933594 566.90625 150.933594 C 565.46875 150.933594 564.25 151.585938 563.242188 152.898438 C 562.238281 154.210938 561.734375 155.78125 561.734375 157.613281 L 561.734375 169.585938 L 558.367188 169.585938 L 558.367188 157.121094 C 558.367188 152.992188 556.773438 150.933594 553.589844 150.933594 C 552.109375 150.933594 550.894531 151.554688 549.9375 152.785156 C 548.976563 154.023438 548.5 155.636719 548.5 157.613281 L 548.5 169.585938 L 545.132813 169.585938 L 545.132813 148.597656 L 548.5 148.597656 L 548.5 151.914063 L 548.582031 151.914063 C 550.074219 149.375 552.246094 148.105469 555.105469 148.105469 C 556.542969 148.105469 557.796875 148.5 558.863281 149.304688 C 559.929688 150.101563 560.660156 151.148438 561.058594 152.449219 C 562.617188 149.550781 564.941406 148.105469 568.035156 148.105469 C 572.65625 148.105469 574.96875 150.953125 574.96875 156.652344 L 574.96875 169.585938 "/>
<path style=" stroke:none;fill-rule:nonzero;fill:rgb(0%,31.799316%,49.398804%);fill-opacity:1;" d="M 538.773438 169.585938 L 535.40625 169.585938 L 535.40625 157.53125 C 535.40625 155.207031 535.050781 153.527344 534.328125 152.488281 C 533.613281 151.453125 532.40625 150.933594 530.707031 150.933594 C 529.269531 150.933594 528.050781 151.585938 527.046875 152.898438 C 526.039063 154.210938 525.535156 155.78125 525.535156 157.613281 L 525.535156 169.585938 L 522.171875 169.585938 L 522.171875 157.121094 C 522.171875 152.992188 520.578125 150.933594 517.390625 150.933594 C 515.914063 150.933594 514.695313 151.554688 513.738281 152.785156 C 512.78125 154.023438 512.300781 155.636719 512.300781 157.613281 L 512.300781 169.585938 L 508.9375 169.585938 L 508.9375 148.597656 L 512.300781 148.597656 L 512.300781 151.914063 L 512.382813 151.914063 C 513.875 149.375 516.050781 148.105469 518.910156 148.105469 C 520.347656 148.105469 521.597656 148.5 522.664063 149.304688 C 523.730469 150.101563 524.464844 151.148438 524.859375 152.449219 C 526.417969 149.550781 528.746094 148.105469 531.835938 148.105469 C 536.460938 148.105469 538.773438 150.953125 538.773438 156.652344 L 538.773438 169.585938 "/>
<g clip-path="url(#clip7)" clip-rule="nonzero">
<path style=" stroke:none;fill-rule:nonzero;fill:rgb(0%,31.799316%,49.398804%);fill-opacity:1;" d="M 493.34375 150.933594 C 491.179688 150.933594 489.46875 151.664063 488.210938 153.136719 C 486.953125 154.605469 486.324219 156.632813 486.324219 159.214844 C 486.324219 161.703125 486.960938 163.660156 488.230469 165.097656 C 489.503906 166.53125 491.207031 167.25 493.34375 167.25 C 495.515625 167.25 497.1875 166.542969 498.359375 165.140625 C 499.527344 163.730469 500.113281 161.726563 500.113281 159.132813 C 500.113281 156.511719 499.527344 154.488281 498.359375 153.0625 C 497.1875 151.644531 495.515625 150.933594 493.34375 150.933594 Z M 493.097656 170.078125 C 489.992188 170.078125 487.511719 169.101563 485.65625 167.136719 C 483.804688 165.175781 482.878906 162.574219 482.878906 159.335938 C 482.878906 155.8125 483.839844 153.058594 485.769531 151.074219 C 487.699219 149.097656 490.304688 148.105469 493.589844 148.105469 C 496.722656 148.105469 499.164063 149.066406 500.925781 150.992188 C 502.683594 152.917969 503.5625 155.59375 503.5625 159.011719 C 503.5625 162.359375 502.613281 165.039063 500.71875 167.054688 C 498.824219 169.070313 496.28125 170.078125 493.097656 170.078125 "/>
</g>
<g clip-path="url(#clip8)" clip-rule="nonzero">
<path style=" stroke:none;fill-rule:nonzero;fill:rgb(0%,31.799316%,49.398804%);fill-opacity:1;" d="M 479.222656 168.621094 C 477.609375 169.597656 475.695313 170.078125 473.480469 170.078125 C 470.480469 170.078125 468.066406 169.105469 466.226563 167.15625 C 464.386719 165.210938 463.464844 162.6875 463.464844 159.582031 C 463.464844 156.125 464.453125 153.347656 466.441406 151.25 C 468.425781 149.152344 471.070313 148.105469 474.382813 148.105469 C 476.226563 148.105469 477.855469 148.441406 479.265625 149.128906 L 479.265625 152.570313 C 477.707031 151.480469 476.035156 150.933594 474.257813 150.933594 C 472.109375 150.933594 470.351563 151.699219 468.976563 153.238281 C 467.601563 154.773438 466.910156 156.792969 466.910156 159.296875 C 466.910156 161.757813 467.558594 163.695313 468.851563 165.117188 C 470.144531 166.539063 471.878906 167.25 474.054688 167.25 C 475.886719 167.25 477.609375 166.644531 479.222656 165.425781 L 479.222656 168.621094 "/>
</g>
<g clip-path="url(#clip9)" clip-rule="nonzero">
<path style=" stroke:none;fill-rule:nonzero;fill:rgb(0%,31.799316%,49.398804%);fill-opacity:1;" d="M 708.710938 77.105469 C 709.382813 71.738281 711.285156 67.253906 714.414063 63.65625 C 717.542969 60.058594 721.25 58.261719 725.53125 58.261719 C 735.566406 58.261719 740.585938 64.539063 740.585938 77.105469 Z M 755 51.40625 C 748.09375 43.808594 738.328125 40.011719 725.699219 40.011719 C 713.527344 40.011719 703.265625 44.265625 694.929688 52.777344 C 686.582031 61.285156 682.414063 72.820313 682.414063 87.382813 C 682.414063 101.433594 686.273438 112.386719 693.996094 120.238281 C 701.71875 128.09375 712.566406 132.019531 726.546875 132.019531 C 733.027344 132.019531 738.886719 131.453125 744.140625 130.34375 L 757.746094 105.988281 L 757.746094 105.976563 C 750.53125 110.542969 742.160156 112.824219 732.636719 112.824219 C 717.699219 112.824219 709.777344 106.460938 708.875 93.722656 L 765.355469 93.722656 L 765.355469 82.328125 C 765.355469 69.308594 761.902344 59.003906 755 51.40625 "/>
</g>
<path style=" stroke:none;fill-rule:nonzero;fill:rgb(0%,31.799316%,49.398804%);fill-opacity:1;" d="M 666.433594 129.871094 L 639.808594 129.871094 L 639.808594 81.121094 C 639.808594 67.527344 635.019531 60.726563 625.429688 60.726563 C 620.8125 60.726563 617.003906 62.539063 614.023438 66.136719 C 611.039063 69.734375 609.539063 74.3125 609.539063 79.832031 L 609.539063 129.871094 L 582.820313 129.871094 L 582.820313 42.152344 L 609.539063 42.152344 L 609.539063 56.035156 L 609.871094 56.035156 C 616.246094 45.351563 625.523438 40.011719 637.6875 40.011719 C 656.859375 40.011719 666.433594 52.058594 666.433594 76.167969 L 666.433594 129.871094 "/>
<path style=" stroke:none;fill-rule:nonzero;fill:rgb(0%,31.799316%,49.398804%);fill-opacity:1;" d="M 560.332031 129.871094 L 533.613281 129.871094 L 533.613281 42.152344 L 560.332031 42.152344 Z M 547.144531 28.269531 C 542.640625 28.269531 538.949219 26.910156 536.074219 24.195313 C 533.195313 21.496094 531.753906 18.171875 531.753906 14.207031 C 531.753906 10.179688 533.195313 6.867188 536.074219 4.289063 C 538.949219 1.710938 542.640625 0.4375 547.144531 0.4375 C 551.703125 0.4375 555.40625 1.710938 558.257813 4.289063 C 561.105469 6.867188 562.523438 10.179688 562.523438 14.207031 C 562.523438 18.332031 561.105469 21.695313 558.257813 24.328125 C 555.40625 26.96875 551.703125 28.269531 547.144531 28.269531 "/>
<path style=" stroke:none;fill-rule:nonzero;fill:rgb(0%,31.799316%,49.398804%);fill-opacity:1;" d="M 484.410156 129.871094 L 511.128906 129.871094 L 511.128906 0 L 484.414063 27.070313 L 484.410156 129.871094 "/>
<g clip-path="url(#clip10)" clip-rule="nonzero">
<path style=" stroke:none;fill-rule:nonzero;fill:rgb(0%,31.799316%,49.398804%);fill-opacity:1;" d="M 447.203125 42.152344 L 430.886719 95.679688 C 429.539063 100.074219 428.605469 103.929688 428.105469 107.25 L 427.75 107.25 C 427.199219 102.730469 426.410156 98.839844 425.390625 95.515625 L 409.257813 42.152344 L 379.648438 42.152344 L 414.832031 129.691406 L 410.277344 140.574219 C 408.039063 145.96875 404.371094 149.117188 399.328125 150.082031 L 408.53125 170.078125 C 421.472656 166.878906 431.476563 155.824219 438.503906 136.886719 L 473.683594 42.152344 L 447.203125 42.152344 "/>
</g>
<path style=" stroke:none;fill-rule:nonzero;fill:rgb(0%,31.799316%,49.398804%);fill-opacity:1;" d="M 294.4375 129.871094 L 321.148438 129.871094 L 321.148438 86.339844 L 321.484375 86.339844 L 349.132813 129.871094 L 381.167969 129.871094 L 347.957031 83.359375 L 378.992188 42.152344 L 347.269531 42.152344 L 321.484375 82.667969 L 321.148438 82.667969 L 321.148438 0 L 294.441406 27.070313 L 294.4375 129.871094 "/>
<path style=" stroke:none;fill-rule:nonzero;fill:rgb(0%,31.799316%,49.398804%);fill-opacity:1;" d="M 212.597656 127.546875 L 212.597656 105.636719 C 216.976563 108.3125 221.390625 110.3125 225.742188 111.632813 C 230.101563 112.941406 234.261719 113.59375 238.136719 113.59375 C 242.867188 113.59375 246.617188 112.941406 249.3125 111.632813 C 252.066406 110.3125 253.449219 108.3125 253.449219 105.636719 C 253.449219 103.910156 252.800781 102.476563 251.585938 101.347656 C 250.335938 100.191406 248.753906 99.203125 246.796875 98.328125 C 244.839844 97.496094 242.722656 96.714844 240.394531 96.039063 C 238.097656 95.351563 235.878906 94.578125 233.75 93.714844 C 230.3125 92.410156 227.25 90.988281 224.632813 89.480469 C 222.015625 87.957031 219.824219 86.195313 218.03125 84.195313 C 216.273438 82.195313 214.910156 79.910156 214.011719 77.257813 C 213.046875 74.640625 212.597656 71.523438 212.597656 67.929688 C 212.597656 63.015625 213.660156 58.800781 215.769531 55.257813 C 217.886719 51.714844 220.6875 48.820313 224.238281 46.566406 C 227.730469 44.316406 231.769531 42.644531 236.324219 41.589844 C 240.859375 40.535156 245.585938 40.011719 250.46875 40.011719 C 254.304688 40.011719 258.210938 40.320313 262.160156 40.898438 C 266.105469 41.519531 269.980469 42.371094 273.789063 43.523438 L 273.789063 64.429688 C 270.414063 62.433594 266.808594 60.925781 262.957031 59.925781 C 259.0625 58.921875 255.308594 58.433594 251.585938 58.433594 C 249.824219 58.433594 248.195313 58.589844 246.644531 58.886719 C 245.074219 59.214844 243.726563 59.660156 242.507813 60.269531 C 241.359375 60.859375 240.394531 61.648438 239.75 62.585938 C 239.046875 63.519531 238.742188 64.589844 238.742188 65.789063 C 238.742188 67.390625 239.246094 68.753906 240.25 69.914063 C 241.257813 71.042969 242.578125 72.042969 244.234375 72.851563 C 245.859375 73.675781 247.6875 74.441406 249.667969 75.09375 C 251.664063 75.746094 253.664063 76.421875 255.625 77.109375 C 259.183594 78.347656 262.414063 79.726563 265.28125 81.214844 C 268.152344 82.707031 270.605469 84.445313 272.683594 86.445313 C 274.734375 88.445313 276.3125 90.773438 277.417969 93.460938 C 278.5 96.15625 279.046875 99.351563 279.046875 103.058594 C 279.046875 108.253906 277.949219 112.703125 275.703125 116.371094 C 273.492188 120.054688 270.535156 123.058594 266.84375 125.371094 C 263.152344 127.675781 258.878906 129.371094 254.050781 130.429688 C 249.265625 131.488281 244.261719 132.019531 239.046875 132.019531 C 229.546875 132.019531 220.703125 130.527344 212.597656 127.546875 "/>
<path style=" stroke:none;fill-rule:nonzero;fill:rgb(0%,31.799316%,49.398804%);fill-opacity:1;" d="M 1.519531 68.976563 C 0.527344 74.175781 0 79.546875 0 85.039063 C 0 104.015625 6.21875 121.535156 16.722656 135.6875 C 25.261719 130.527344 32.761719 124.785156 39.078125 118.34375 C 30.097656 100.390625 18.152344 85.449219 1.519531 68.976563 "/>
<path style=" stroke:none;fill-rule:nonzero;fill:rgb(0%,31.799316%,49.398804%);fill-opacity:1;" d="M 31.898438 18.652344 C 20.121094 28.09375 10.914063 40.597656 5.480469 54.960938 C 40.753906 63.101563 59.179688 80.34375 59.179688 80.34375 C 59.179688 80.34375 55.636719 43.5625 31.898438 18.652344 "/>
<g clip-path="url(#clip11)" clip-rule="nonzero">
<path style=" stroke:none;fill-rule:nonzero;fill:rgb(0%,31.799316%,49.398804%);fill-opacity:1;" d="M 85.039063 0 C 71.308594 0 58.34375 3.257813 46.859375 9.035156 C 61.578125 12.355469 71.703125 19.785156 76.851563 26.140625 C 89.886719 42.265625 96.964844 94.734375 112.835938 94.882813 C 118.335938 94.433594 135.4375 93.511719 147.777344 100.75 C 157.1875 106.308594 161.429688 116.664063 161.429688 122.4375 C 142.769531 115.226563 129.210938 118.949219 121.113281 121.53125 C 108.925781 125.398438 72.214844 142.6875 57.199219 147.933594 C 50.8125 150.15625 43.5 152.308594 35.683594 154.292969 C 49.597656 164.230469 66.636719 170.078125 85.039063 170.078125 C 132.003906 170.078125 170.078125 132.007813 170.078125 85.039063 C 170.078125 38.070313 132.003906 0 85.039063 0 "/>
</g>
</g>
</svg>
