<?xml version="1.0" encoding="utf-8"?>
<!-- Generator: Adobe Illustrator 22.1.0, SVG Export Plug-In . SVG Version: 6.00 Build 0)  -->
<svg version="1.1" id="Layer_1" xmlns="http://www.w3.org/2000/svg" xmlns:xlink="http://www.w3.org/1999/xlink" x="0px" y="0px"
	 viewBox="0 0 361.3 130.7" style="enable-background:new 0 0 361.3 130.7;" xml:space="preserve">
<style type="text/css">
	.st0{fill:#FFFFFF;}
	.st1{opacity:0.75;}
	.st2{fill:#EB8B24;}
	.st3{opacity:0.77;}
	.st4{fill:none;stroke:#EB8B24;stroke-width:4.8245;stroke-miterlimit:10;}
</style>
<g>
	<g>
		<g>
			<g>
				<path class="st0" d="M206.3,54.2l50.1,0v10l-40.1,0l0,10l20.1,0l0,10l-20.1,0v10l40.1,0l0,10l-50.1,0L206.3,54.2z"/>
				<path class="st0" d="M286.5,64.2l-20.1,0v-10l50.1,0v10l-20.1,0l0,40.1l-10,0L286.5,64.2z"/>
			</g>
			<g>
				<path class="st0" d="M319.7,101h15.1v-3.8h-15.1V85.8h18.9v3.8h-15.1v3.8h15.1v11.4h-18.9V101z"/>
				<path class="st0" d="M342.4,97.2h3.8v3.8h11.4V85.8h3.8v18.9h-18.9V97.2z"/>
			</g>
			<g>
				<polygon class="st0" points="145.6,97.1 148.1,99.2 150.9,100.9 153.9,102.4 157,103.5 160.2,104.3 163.4,104.7 166.7,104.7 
					170,104.4 173.2,103.8 176.4,102.8 179.4,101.4 182.2,99.8 184.9,97.8 187.3,95.6 189.4,93.1 191.3,90.4 192.8,87.5 194.1,84.4 
					195,81.2 195.5,78 195.7,74.7 195.7,54.6 185.7,54.6 185.7,74.7 185.5,77.6 184.8,80.4 183.8,83.1 182.4,85.6 180.7,87.9 
					178.7,89.9 176.3,91.6 173.8,93 171.1,94 168.3,94.6 165.4,94.7 162.5,94.5 159.7,93.8 157,92.8 154.5,91.4 152.3,89.6 				"/>
			</g>
		</g>
	</g>
	<g>
		<g class="st1">
			<polygon class="st2" points="0,89.5 0,108.3 49.6,130.7 49.6,96.7 49.3,96.6 			"/>
			<path class="st2" d="M49.6,90.8V0L0,22.7v64.6l49.5,3.5C49.5,90.8,49.6,90.8,49.6,90.8z"/>
			<polygon class="st2" points="49.1,90.9 49.1,90.9 49.1,90.9 			"/>
		</g>
		<g>
			<path class="st2" d="M75.5,82.3c8.2-4.3,15.7-10.1,21.9-17.1c6.2-7,11.2-15.1,15.1-23.7c3.7-8.1,6.5-16.7,8.8-25.4L49.6,0v90.8
				C58.6,89.3,67.4,86.5,75.5,82.3z"/>
			<path class="st2" d="M123.1,16.4c-2.1,8.8-4.5,17.7-8.1,26.1c-3.7,8.9-8.5,17.5-14.8,25.1c-6.2,7.6-13.9,14-22.5,18.9
				c-8.6,4.9-18,8.2-27.6,10.1v0h0l-0.5,0.1l0,0v34l79.5-18.2V17.8L123.1,16.4z"/>
		</g>
	</g>
</g>
</svg>
