<?xml version="1.0" encoding="utf-8"?>
<!-- Generator: Adobe Illustrator 26.0.1, SVG Export Plug-In . SVG Version: 6.00 Build 0)  -->
<svg version="1.1" id="Layer_1" xmlns="http://www.w3.org/2000/svg" xmlns:xlink="http://www.w3.org/1999/xlink" x="0px" y="0px"
	 viewBox="0 0 748.5 216.2" style="enable-background:new 0 0 748.5 216.2;" xml:space="preserve">
<g>
	<path d="M153.5,25.2c-4.9,4.9-13.1,14.9-15.5,22.5c-2.7,8.9-4.8,12.8,3.6,37.6c9.1,26.7,16.3,53.2-14.3,80
		c-32.5,28.5-64,45.3-64,45.3c22.8-36.8,13.6-72.7,36.8-90.5c1.2-0.9,1.9-1.4,1.9-1.4s-19.7,5.1-42.4-1.5
		C36.2,110.3,5.1,77.8,5.1,77.8S40,97.1,74.7,80.3c19-9.2,27.6-5.1,31.4-0.4c3.8,4.8-20-26.8-3.6-41.4c15.2-13.5,30.5-2.2,30.5-2.2
		C144.9,25.3,175.2,6,175.2,6S158.5,20.2,153.5,25.2z"/>
	<g>
		<g>
			<path d="M196.2,192.1v-82.4h7.4v82.4H196.2z"/>
			<path d="M214.5,120.4v-11h7.4v11H214.5z M214.5,192.1v-61.3h7.4v61.3H214.5z"/>
			<path d="M245.6,125.5v5.2h14.7v4.2h-14.7v57.2h-7.4v-57.2h-6.4v-4.2h6.4v-5.5c0-9.8,5.8-16.1,22.7-16v4.3
				C248.6,113.4,245.6,117.9,245.6,125.5z"/>
			<path d="M289.4,193c-13.4,0-22.7-5.4-22.7-16.3v-30.6c0-11,9.4-16.3,22.7-16.3c13.4,0,22.7,5.4,22.7,16.3V162h-38.1v14.8
				c0,7.7,5.8,12,15.3,12c9.6,0,15.3-4.3,15.3-12V175h7.4v1.7C312.1,187.7,302.8,193,289.4,193z M304.8,146.1c0-7.7-5.8-12-15.3-12
				c-9.6,0-15.3,4.3-15.3,12v11.5h30.7V146.1z"/>
			<path d="M363.5,193c-13.4,0-22.7-5.4-22.7-16.3v-30.6c0-11,9.4-16.3,22.7-16.3c13.4,0,22.7,5.4,22.7,16.3V162h-38.1v14.8
				c0,7.7,5.8,12,15.3,12c9.6,0,15.3-4.3,15.3-12V175h7.4v1.7C386.2,187.7,376.8,193,363.5,193z M378.8,146.1c0-7.7-5.8-12-15.3-12
				c-9.6,0-15.3,4.3-15.3,12v11.5h30.7V146.1z"/>
			<path d="M466.8,193.1v-46c0-8.1-3.6-12-13-12c-10.2,0-15.1,4.9-15.1,13.3v44.6h-7.4v-46c0-8.1-3.6-12-13-12
				c-10.2,0-15.1,4.9-15.1,13.3v44.6h-7.4v-61.3h6.8v5.2c2.8-3.9,8.8-6.2,15.9-6.2c9.6,0,14.7,2.7,17.3,7.1
				c2.8-4.4,9.8-7.1,18.1-7.1c14,0,20.1,5,20.1,16.3v46L466.8,193.1L466.8,193.1z"/>
			<path d="M507.1,194c-13.4,0-22.7-5.4-22.7-16.3v-30.6c0-11,9.4-16.3,22.7-16.3c13.4,0,22.7,5.4,22.7,16.3v30.6
				C529.8,188.7,520.4,194,507.1,194z M522.4,147.1c0-7.7-5.8-12-15.3-12s-15.3,4.3-15.3,12v30.6c0,7.7,5.8,12,15.3,12
				s15.3-4.3,15.3-12V147.1z"/>
			<path d="M546.5,177.6v-41.7h-8.2v-4.2h8.2l0-21.6h7.4l0,21.6h13.7v4.2h-13.7v41.4c0,7.6,3,12.1,15.3,11.9v4.3
				C552.3,193.7,546.5,187.4,546.5,177.6z"/>
			<path d="M574.6,121.4v-11h7.4v11H574.6z M574.6,193.1v-61.3h7.4v61.3H574.6z"/>
			<path d="M614.6,194c-13.3,0-22.7-5.4-22.7-16.3v-30.6c0-11,9.4-16.3,22.7-16.3c13.4,0,22.7,5.4,22.7,16.3v30.6
				C637.3,188.7,628,194,614.6,194z M630,147.1c0-7.7-5.8-12-15.3-12c-9.6,0-15.3,4.3-15.3,12v30.6c0,7.7,5.8,12,15.3,12
				c9.6,0,15.3-4.3,15.3-12V147.1z"/>
			<path d="M682.5,193.1v-46c0-8.1-4-12-13.3-12c-10.2,0-15.5,4.9-15.5,13.3v44.6h-7.4v-61.3h6.8v5.2c2.8-3.9,9.2-6.2,16.3-6.2
				c13.9,0,20.5,5,20.5,16.3v46L682.5,193.1L682.5,193.1z"/>
			<path d="M735.8,148.2v-3.1c0-5.7-4.4-10-13.2-10s-13.9,3.8-13.9,9.8c0,4.5,3.2,7.7,8.6,10.7l16.1,8.8c7,3.8,11.4,8.1,11.4,14.6
				c0,8.9-8.4,15-22.5,15c-16.1,0-22.1-7.1-22.1-15.5V176h7.4v2.5c0,6.9,5.2,11.3,14.7,11.3s14.9-4.3,14.9-10.8
				c0-4.5-3.2-8.1-8.6-11.1l-16.1-8.8c-7-3.8-11.4-7.7-11.4-14.3c0-8.6,7.8-14.1,21.5-14.1c13.5,0,20.5,5.7,20.5,14.3
				c0,1,0,3.1,0,3.1L735.8,148.2L735.8,148.2z"/>
		</g>
	</g>
</g>
</svg>
